<?xml version="1.0" encoding="UTF-8"?>
<svg width="128" height="128" viewBox="0 0 128 128" fill="none" xmlns="http://www.w3.org/2000/svg" role="img" aria-label="BL4Builds.net logo">
  <defs>
    <linearGradient id="g1" x1="0" y1="0" x2="128" y2="128" gradientUnits="userSpaceOnUse">
      <stop offset="0" stop-color="#FF6B35"/>
      <stop offset="1" stop-color="#F7B267"/>
    </linearGradient>
    <linearGradient id="g2" x1="0" y1="0" x2="128" y2="128" gradientUnits="userSpaceOnUse">
      <stop offset="0" stop-color="#42E6D5"/>
      <stop offset="1" stop-color="#2BB3A7"/>
    </linearGradient>
    <filter id="shadow" x="-20%" y="-20%" width="140%" height="140%">
      <feDropShadow dx="0" dy="2" stdDeviation="2" flood-color="#000" flood-opacity="0.25"/>
    </filter>
  </defs>

  <!-- Shield -->
  <path d="M64 8l39 16v34c0 30-17 45-39 62C42 103 25 88 25 58V24L64 8z" fill="url(#g1)" stroke="#222" stroke-width="2" filter="url(#shadow)"/>

  <!-- Bolt -->
  <path d="M71 26L46 70h16l-6 32 31-48H74l-3-28z" fill="url(#g2)" stroke="#111" stroke-width="2" opacity="0.95"/>

  <!-- BL4 text -->
  <g fill="#111" opacity="0.95">
    <path d="M18 76h14c5 0 9 3 9 9 0 4-2 7-6 8 4 1 6 4 6 8 0 7-5 11-12 11H18V76zm8 13h5c2 0 3-1 3-3s-1-3-3-3h-5v6zm0 18h6c3 0 4-1 4-4s-1-4-4-4h-6v8z"/>
    <path d="M48 76h10c9 0 16 7 16 16s-7 16-16 16H48V76zm8 24h2c5 0 8-3 8-8s-3-8-8-8h-2v16z"/>
    <path d="M90 76h8v10h6v8h-6v14h-8V94h-8v-6l8-12z"/>
  </g>
</svg>

